<?xml version="1.0" standalone="no"?>
<!DOCTYPE svg PUBLIC "-//W3C//DTD SVG 20010904//EN"
 "http://www.w3.org/TR/2001/REC-SVG-20010904/DTD/svg10.dtd">
<svg version="1.0" xmlns="http://www.w3.org/2000/svg"
 width="180.000000pt" height="180.000000pt" viewBox="0 0 180.000000 180.000000"
 preserveAspectRatio="xMidYMid meet">

<g transform="translate(0.000000,180.000000) scale(0.100000,-0.100000)"
fill="#000000" stroke="none">
<path d="M1276 1742 c-13 -41 -55 -70 -109 -77 -29 -4 -71 -13 -94 -22 -35
-13 -55 -13 -124 -4 -104 14 -314 14 -399 0 -89 -14 -190 -50 -252 -90 l-52
-34 40 -6 c60 -11 87 -24 120 -58 l31 -32 6 -277 c4 -152 7 -441 7 -641 0
-350 1 -365 21 -397 28 -46 92 -65 186 -55 9 1 4 17 -14 49 -18 33 -24 55 -20
73 10 40 46 79 88 96 22 8 39 16 39 18 0 1 -18 21 -40 43 l-41 40 3 542 3 542
28 24 c41 35 127 34 163 -1 20 -20 23 -29 14 -45 -6 -11 -21 -22 -34 -26 l-24
-6 -7 -471 c-5 -380 -10 -476 -21 -494 -19 -30 -18 -33 9 -33 32 0 118 -43
145 -72 29 -32 38 -86 17 -113 -13 -17 -19 -18 -46 -8 -56 21 -111 -19 -75
-55 11 -11 32 -16 70 -15 59 2 90 14 105 41 5 9 12 300 16 646 l8 630 23 23
c18 18 34 23 71 23 83 0 120 -47 69 -87 l-24 -19 -1 -595 c-1 -351 -6 -609
-12 -631 -5 -21 -24 -49 -45 -68 -40 -35 -40 -39 5 -46 79 -13 158 42 211 145
31 62 85 117 125 127 32 8 31 15 -1 45 -54 49 -54 53 -54 537 l0 450 30 12
c17 7 42 26 56 43 22 26 25 38 21 77 -4 37 -12 51 -45 81 -22 19 -59 41 -81
47 -37 12 -40 15 -43 54 -2 32 -10 46 -35 65 -30 23 -31 24 -37 5z"/>
</g>
</svg>

